HIERARCHY
ROOT Hips
{
	OFFSET 0.00000 0.00000 0.00000
	CHANNELS 6 Xposition Yposition Zposition Zrotation Yrotation Xrotation 
	JOINT LHipJoint
	{
		OFFSET 0 0 0
		CHANNELS 3 Zrotation Yrotation Xrotation
		JOINT LeftHip
		{
			OFFSET 1.41496 -1.84582 0.78394
			CHANNELS 3 Zrotation Yrotation Xrotation
			JOINT LeftKnee
			{
				OFFSET 2.58040 -7.08960 0.00000
				CHANNELS 3 Zrotation Yrotation Xrotation
				JOINT LeftAnkle
				{
					OFFSET 2.64719 -7.27309 0.00000
					CHANNELS 3 Zrotation Yrotation Xrotation
					JOINT LeftToe
					{
						OFFSET 0.20718 -0.56921 2.20259
						CHANNELS 3 Zrotation Yrotation Xrotation
						End Site
						{
							OFFSET 0.00000 -0.00000 1.14243
						}
					}
				}
			}
		}
	}
	JOINT RHipJoint
	{
		OFFSET 0 0 0
		CHANNELS 3 Zrotation Yrotation Xrotation
		JOINT RightHip
		{
			OFFSET -1.40551 -1.84582 0.78394
			CHANNELS 3 Zrotation Yrotation Xrotation
			JOINT RightKnee
			{
				OFFSET -2.56572 -7.04926 0.00000
				CHANNELS 3 Zrotation Yrotation Xrotation
				JOINT RightAnkle
				{
					OFFSET -2.57974 -7.08778 0.00000
					CHANNELS 3 Zrotation Yrotation Xrotation
					JOINT RightToe
					{
						OFFSET -0.26704 -0.73369 2.20815
						CHANNELS 3 Zrotation Yrotation Xrotation
						End Site
						{
							OFFSET -0.00000 -0.00000 1.16246
						}
					}
				}
			}
		}
	}
	JOINT lowerback
	{
		OFFSET 0 0 0
		CHANNELS 3 Zrotation Yrotation Xrotation
		JOINT Chest
		{
			OFFSET -0.04690 2.05196 -0.07017
			CHANNELS 3 Zrotation Yrotation Xrotation
			JOINT Chest2
			{
				OFFSET 0.04085 2.05260 0.00800
				CHANNELS 3 Zrotation Yrotation Xrotation
				JOINT lowerneck
				{
					OFFSET 0 0 0
					CHANNELS 3 Zrotation Yrotation Xrotation
					JOINT Neck
					{
						OFFSET -0.03582 1.80995 0.19301
						CHANNELS 3 Zrotation Yrotation Xrotation
						JOINT Head
						{
							OFFSET 0.00952 1.80195 -0.36389
							CHANNELS 3 Zrotation Yrotation Xrotation
							End Site
							{
								OFFSET 0.00392 1.85062 -0.14494
							}
						}
					}
				}
				JOINT LeftCollar
				{
					OFFSET 0 0 0
					CHANNELS 3 Zrotation Yrotation Xrotation
					JOINT LeftShoulder
					{
						OFFSET 3.55224 1.39726 -0.13667
CHANNELS 3 Zrotation Xrotation Yrotation
						JOINT LeftElbow
						{
OFFSET 0 -5.145070 -0.000000
CHANNELS 3 Zrotation Xrotation Yrotation
							JOINT LeftWrist
							{
OFFSET 0 -3.506460 0.000000
CHANNELS 3 Zrotation Xrotation Yrotation
								JOINT lhand
								{
									OFFSET 0 0 0
CHANNELS 3 Zrotation Xrotation Yrotation
									JOINT LFingers
									{
OFFSET 0 -0.629970 0.000000
CHANNELS 3 Zrotation Xrotation Yrotation
										End Site
										{
OFFSET 0 -0.507900 0.000000
										}
									}
								}
								JOINT LThumb
								{
OFFSET 0 0.000000 0.000000
CHANNELS 3 Zrotation Xrotation Yrotation
									End Site
									{
OFFSET 0 -0.515650 0.515650
									}
								}
							}
						}
					}
				}
				JOINT RightCollar
				{
					OFFSET 0 0 0
					CHANNELS 3 Zrotation Yrotation Xrotation
					JOINT RightShoulder
					{
						OFFSET -3.06467 1.61290 -0.28813
CHANNELS 3 Zrotation Xrotation Yrotation
						JOINT RightElbow
						{
OFFSET 0 -5.232000 -0.000000
CHANNELS 3 Zrotation Xrotation Yrotation
							JOINT RightWrist
							{
OFFSET 0 -3.656410 0.000000
CHANNELS 3 Zrotation Xrotation Yrotation
								JOINT rhand
								{
									OFFSET 0 0 0
CHANNELS 3 Zrotation Xrotation Yrotation
									JOINT RFingers
									{
OFFSET 0 -0.656810 0.000000
CHANNELS 3 Zrotation Xrotation Yrotation
										End Site
										{
OFFSET 0 -0.529530 0.000000
										}
									}
								}
								JOINT RThumb
								{
OFFSET 0 0.000000 0.000000
CHANNELS 3 Zrotation Xrotation Yrotation
									End Site
									{
OFFSET 0 -0.537620 0.537620
									}
								}
							}
						}
					}
				}
			}
		}
	}
}
MOTION
Frames: 8
Frame Time: 0.008333333333333333
0.942863 16.525943 29.742927 176.171302 -2.938766 -160.336523 0.000000 0.000000 0.000000 -25.728240 -11.044257 -13.130114 3.000248 10.695448 31.259620 3.126491 -4.542968 -32.473293 0.017362 0.850717 2.338113 0.000000 0.000000 0.000000 10.509528 8.654610 -48.254950 -8.937038 -16.766825 55.871741 -1.508861 5.164931 -22.115709 -0.014944 -0.787010 2.162834 -2.933049 -1.347152 11.890811 2.241136 -2.110900 -0.430423 4.409189 -0.909691 -6.948031 -1.486543 -0.384383 -15.854211 -1.159134 0.000462 10.908958 -0.127367 -0.148591 5.893815 0.000000 0.000000 0.000000 1.753137 5.885403 -34.022541 23.531482 -34.664825 7.438385 10.899731 9.525458 -10.880220 0.000000 0.000000 0.000000 -7.125000 0.000000 0.000000 -14.241353 40.637598 -1.568048 0.000000 0.000000 0.000000 -4.274729 4.130640 22.344177 -23.864692 -35.020320 -7.628948 -20.768645 0.949068 12.251750 0.000000 0.000000 0.000000 7.125000 0.000000 0.000000 5.870632 42.978696 0.293848
0.948389 16.513833 29.686427 176.185209 -2.836311 -160.099252 0.000000 0.000000 0.000000 -25.708890 -11.041545 -13.137759 2.986412 10.672983 31.184875 3.150539 -4.444442 -32.621403 0.015216 0.796100 2.187891 0.000000 0.000000 0.000000 10.507878 8.736064 -48.483048 -9.033078 -16.828664 56.203978 -1.531387 5.244163 -22.278343 -0.011525 -0.688283 1.891444 -2.897458 -1.352852 11.951223 2.256806 -2.115428 -0.412846 4.408640 -0.913435 -6.963684 -1.464949 -0.351641 -15.808273 -1.159658 0.033916 10.665114 -0.127497 -0.129594 5.808690 0.000000 0.000000 0.000000 1.746986 5.872358 -34.277285 23.596091 -34.734152 7.475157 10.987089 9.400310 -10.884076 0.000000 0.000000 0.000000 -7.125000 0.000000 0.000000 -14.167409 40.648951 -1.555462 0.000000 0.000000 0.000000 -4.268086 4.184397 22.472940 -24.098815 -35.267814 -7.763837 -20.674124 0.975849 12.330103 0.000000 0.000000 0.000000 7.125000 0.000000 0.000000 5.969474 43.051190 0.288049
0.953915 16.501455 29.629344 176.200681 -2.731485 -159.861087 0.000000 0.000000 0.000000 -25.689384 -11.040108 -13.142898 2.972487 10.650272 31.109391 3.174632 -4.344037 -32.769939 0.013227 0.742333 2.040019 0.000000 0.000000 0.000000 10.506496 8.819173 -48.712979 -9.130996 -16.891106 56.541830 -1.553711 5.323238 -22.438538 -0.008376 -0.586939 1.612940 -2.861264 -1.358820 12.010405 2.272610 -2.120181 -0.394776 4.407866 -0.917358 -6.978106 -1.442348 -0.317602 -15.762021 -1.160763 0.069226 10.419323 -0.127829 -0.109591 5.722984 0.000000 0.000000 0.000000 1.740411 5.856831 -34.535675 23.663451 -34.806320 7.513562 11.071248 9.274983 -10.887060 0.000000 0.000000 0.000000 -7.125000 0.000000 0.000000 -14.096014 40.659119 -1.543637 0.000000 0.000000 0.000000 -4.261511 4.242695 22.604566 -24.341124 -35.522557 -7.904029 -20.571840 1.007015 12.412439 0.000000 0.000000 0.000000 7.125000 0.000000 0.000000 6.076124 43.126949 0.281916
0.959484 16.488513 29.571220 176.219626 -2.617284 -159.618147 0.000000 0.000000 0.000000 -25.669704 -11.037934 -13.149122 2.958649 10.627690 31.034429 3.198812 -4.240376 -32.919212 0.011454 0.689261 1.894100 0.000000 0.000000 0.000000 10.504941 8.909357 -48.950247 -9.232518 -16.954634 56.890273 -1.575515 5.402617 -22.593264 -0.005790 -0.480168 1.319504 -2.825937 -1.363616 12.066766 2.288501 -2.123240 -0.378399 4.407353 -0.920370 -6.992876 -1.417143 -0.280914 -15.714207 -1.163691 0.108182 10.170754 -0.128855 -0.087590 5.636366 0.000000 0.000000 0.000000 1.734269 5.841390 -34.801791 23.739883 -34.887907 7.557262 11.149504 9.144881 -10.882057 0.000000 0.000000 0.000000 -7.125000 0.000000 0.000000 -14.027658 40.660996 -1.535153 0.000000 0.000000 0.000000 -4.255239 4.311193 22.742486 -24.596369 -35.787587 -8.053075 -20.467950 1.041740 12.503325 0.000000 0.000000 0.000000 7.125000 0.000000 0.000000 6.186159 43.211390 0.274002
0.965065 16.475417 29.512812 176.239519 -2.500522 -159.373903 0.000000 0.000000 0.000000 -25.649977 -11.035557 -13.155642 2.944834 10.605145 30.959608 3.223015 -4.135827 -33.068687 0.009741 0.636378 1.748714 0.000000 0.000000 0.000000 10.503339 9.001474 -49.189517 -9.335023 -17.018457 57.241609 -1.597176 5.482079 -22.746496 -0.003359 -0.371916 1.021991 -2.790848 -1.368092 12.122356 2.304415 -2.125837 -0.362485 4.406911 -0.923133 -7.007741 -1.391226 -0.243504 -15.665966 -1.167117 0.148134 9.921426 -0.130071 -0.065045 5.549499 0.000000 0.000000 0.000000 1.728246 5.825973 -35.070017 23.818793 -34.972066 7.602409 11.226148 9.013476 -10.874874 0.000000 0.000000 0.000000 -7.125000 0.000000 0.000000 -13.960132 40.660609 -1.527583 0.000000 0.000000 0.000000 -4.249050 4.382477 22.882125 -24.855146 -36.055427 -8.204539 -20.363622 1.077437 12.596547 0.000000 0.000000 0.000000 7.125000 0.000000 0.000000 6.297118 43.298202 0.265603
0.970646 16.461619 29.453055 176.266422 -2.371358 -159.124267 0.000000 0.000000 0.000000 -25.628039 -11.031564 -13.164158 2.931451 10.583192 30.886783 3.247326 -4.026424 -33.219618 0.008190 0.582201 1.599823 0.000000 0.000000 0.000000 10.503084 9.104375 -49.437146 -9.441841 -17.083360 57.605292 -1.617759 5.560517 -22.890508 -0.001844 -0.258865 0.711320 -2.755651 -1.370896 12.175844 2.320761 -2.126116 -0.348673 4.406469 -0.924656 -7.023792 -1.362830 -0.203074 -15.618372 -1.172323 0.192616 9.669294 -0.131933 -0.040073 5.462093 0.000000 0.000000 0.000000 1.721791 5.811418 -35.345685 23.913933 -35.072995 7.657046 11.295943 8.871178 -10.861327 0.000000 0.000000 0.000000 -7.125000 0.000000 0.000000 -13.896866 40.653320 -1.522870 0.000000 0.000000 0.000000 -4.243292 4.464869 23.033951 -25.127565 -36.332972 -8.365818 -20.275039 1.092751 12.667390 0.000000 0.000000 0.000000 7.125000 0.000000 0.000000 6.390175 43.363013 0.259199
0.976255 16.447704 29.393008 176.294509 -2.240601 -158.874222 0.000000 0.000000 0.000000 -25.605623 -11.026446 -13.172475 2.918197 10.561420 30.814595 3.271686 -3.917131 -33.370769 0.006680 0.527478 1.449422 0.000000 0.000000 0.000000 10.503313 9.208626 -49.685238 -9.549437 -17.148399 57.971173 -1.638206 5.639168 -23.033199 -0.000545 -0.145576 0.399993 -2.720616 -1.373769 12.229160 2.337292 -2.126465 -0.335042 4.406330 -0.926203 -7.039927 -1.333875 -0.161945 -15.570023 -1.178031 0.238091 9.416175 -0.133987 -0.014563 5.374316 0.000000 0.000000 0.000000 1.715188 5.797813 -35.622142 24.013029 -35.177976 7.714030 11.365560 8.726242 -10.844978 0.000000 0.000000 0.000000 -7.125000 0.000000 0.000000 -13.833081 40.643244 -1.519064 0.000000 0.000000 0.000000 -4.237756 4.550493 23.188833 -25.403233 -36.612860 -8.529405 -20.191418 1.101932 12.731518 0.000000 0.000000 0.000000 7.125000 0.000000 0.000000 6.477537 43.421274 0.253533
0.982002 16.433281 29.331671 176.327664 -2.103394 -158.622795 0.000000 0.000000 0.000000 -25.581088 -11.015892 -13.179548 2.905543 10.540477 30.745356 3.296276 -3.808989 -33.522841 0.005353 0.470175 1.291879 0.000000 0.000000 0.000000 10.505800 9.318315 -49.934621 -9.660397 -17.213991 58.346546 -1.658099 5.719017 -23.170406 -0.000213 -0.031688 0.087008 -2.686411 -1.377195 12.281876 2.354699 -2.127460 -0.322056 4.407711 -0.928027 -7.056339 -1.302433 -0.117683 -15.517804 -1.186044 0.287990 9.158448 -0.136915 0.013343 5.284742 0.000000 0.000000 0.000000 1.707894 5.788861 -35.901641 24.129957 -35.301203 7.781611 11.435131 8.569417 -10.815360 0.000000 0.000000 0.000000 -7.125000 0.000000 0.000000 -13.766162 40.620035 -1.519451 0.000000 0.000000 0.000000 -4.233280 4.650953 23.357538 -25.693507 -36.903301 -8.703359 -20.130744 1.082868 12.764729 0.000000 0.000000 0.000000 7.125000 0.000000 0.000000 6.538543 43.449400 0.251322
